<svg version="1.2" xmlns="http://www.w3.org/2000/svg" viewBox="0 0 523 1065" width="523" height="1065"><defs><clipPath clipPathUnits="userSpaceOnUse" id="cp1"><path d="m-1791-214h2880v13526h-2880z"/></clipPath></defs><style></style><g clip-path="url(#cp1)"><path  d="m120.9 848.5c-48-15.6-99.7 10.7-115.4 58.7-13.3 40.8 3.7 84.2 38.5 105.9l-24.9 39.4 83.7-17.5 78.2 25.5c48.1 15.6 99.7-10.7 115.4-58.7 15.7-48-10.6-99.7-58.6-115.3zm282.1-844c48.1-15.6 99.7 10.7 115.4 58.7 13.3 40.8-3.6 84.2-38.5 105.9l24.9 39.4-83.7-17.4-78.2 25.4c-48.1 15.6-99.7-10.6-115.4-58.7-15.7-48 10.6-99.6 58.6-115.3z"/></g></svg>