<svg version="1.2" xmlns="http://www.w3.org/2000/svg" viewBox="0 0 224 48" width="224" height="48"><defs><clipPath clipPathUnits="userSpaceOnUse" id="cp1"><path d="m-206-12862h2880v13526h-2880z"/></clipPath></defs><style>.a{fill:#3461ff}</style><g clip-path="url(#cp1)"><path fill-rule="evenodd" class="a" d="m24 0.7c6.3 0 7.1 0 9.6 0.1 2.5 0.1 4.2 0.5 5.7 1.1 1.5 0.6 2.8 1.4 4.1 2.7 1.2 1.1 2.1 2.6 2.7 4.1 0.6 1.5 1 3.2 1.1 5.7 0.1 2.5 0.1 3.3 0.1 9.6 0 6.3 0 7.1-0.1 9.6-0.1 2.5-0.5 4.2-1.1 5.7-0.6 1.5-1.5 3-2.7 4.1-1.1 1.2-2.6 2.1-4.1 2.7-1.5 0.6-3.2 1-5.7 1.1-2.5 0.1-3.3 0.1-9.6 0.1-6.3 0-7.1 0-9.6-0.1-2.5-0.1-4.2-0.5-5.7-1.1-1.5-0.6-3-1.5-4.1-2.7-1.2-1.1-2.1-2.6-2.7-4.1-0.6-1.5-1-3.2-1.1-5.7-0.1-2.5-0.1-3.3-0.1-9.6 0-6.3 0-7.1 0.1-9.6 0.1-2.5 0.5-4.2 1.1-5.7 0.6-1.5 1.5-3 2.7-4.1 1.1-1.2 2.6-2.1 4.1-2.7 1.5-0.6 3.2-1 5.7-1.1 2.5-0.1 3.3-0.1 9.6-0.1zm0 11.6c-3.1 0-6.1 1.3-8.3 3.4-2.1 2.2-3.4 5.2-3.4 8.3 0 3.1 1.3 6.1 3.4 8.2 2.2 2.2 5.2 3.5 8.3 3.5 3.1 0 6.1-1.3 8.2-3.5 2.2-2.1 3.5-5.1 3.5-8.2 0-3.1-1.3-6.1-3.5-8.3-2.1-2.1-5.1-3.4-8.2-3.4zm15.2-0.6c0-0.7-0.3-1.5-0.9-2-0.5-0.6-1.3-0.9-2.1-0.9-0.7 0-1.5 0.3-2 0.9-0.6 0.5-0.9 1.3-0.9 2 0 0.8 0.3 1.6 0.9 2.1 0.5 0.6 1.3 0.9 2 0.9 0.8 0 1.6-0.3 2.1-0.9 0.6-0.5 0.9-1.3 0.9-2.1zm-15.2 5.3c1.9 0 3.6 0.7 4.9 2 1.4 1.4 2.1 3.1 2.1 5 0 1.9-0.7 3.6-2.1 4.9-1.3 1.4-3 2.1-4.9 2.1-1.9 0-3.6-0.7-5-2.1-1.3-1.3-2-3-2-4.9 0-1.9 0.7-3.6 2-5 1.4-1.3 3.1-2 5-2zm64 21.6q1.2 0.1 2.3 0.1c4.5 0 8.8-1.4 12.3-4.2-2.1 0-4.1-0.7-5.7-1.9-1.7-1.2-2.9-3-3.5-4.9q0.9 0.2 1.8 0.2 1.3 0 2.6-0.4c-2.2-0.4-4.2-1.6-5.7-3.4-1.4-1.8-2.2-4-2.2-6.2v-0.2c1.4 0.8 2.9 1.2 4.5 1.3-2.1-1.4-3.6-3.6-4.1-6-0.6-2.5-0.2-5 1-7.2 2.5 3 5.6 5.5 9.1 7.3 3.5 1.8 7.3 2.8 11.2 3-0.5-2.1-0.2-4.3 0.6-6.3 0.9-2 2.5-3.6 4.4-4.6 1.9-1.1 4.1-1.4 6.2-1.1 2.2 0.4 4.1 1.4 5.6 3 2.2-0.4 4.3-1.2 6.3-2.4-0.8 2.3-2.3 4.3-4.4 5.5 2-0.3 3.9-0.8 5.7-1.6-1.3 2-3 3.7-4.9 5.1q0 0.7 0 1.3c0 13-9.9 28-28 28-5.4 0-10.6-1.5-15.1-4.4zm114.3 8.6v-16.2h7v-7h-7v-4.7c0-1.3 1.1-2.3 2.4-2.3h4.6v-7h-5.8c-4.5 0-8.2 3.7-8.2 8.2v5.8h-4.6v7h4.6v15.9c-10.6-2.2-18.6-11.6-18.6-22.9 0-12.9 10.4-23.3 23.3-23.3 12.9 0 23.3 10.4 23.3 23.3 0 12.1-9.2 22-21 23.2z"/></g></svg>